<?xml version="1.0" encoding="utf-8"?>
<!-- Generator: Adobe Illustrator 18.1.1, SVG Export Plug-In . SVG Version: 6.00 Build 0)  -->
<!DOCTYPE svg PUBLIC "-//W3C//DTD SVG 1.1//EN" "http://www.w3.org/Graphics/SVG/1.1/DTD/svg11.dtd">
<svg version="1.1" id="Layer_1" xmlns="http://www.w3.org/2000/svg" xmlns:xlink="http://www.w3.org/1999/xlink" x="0px" y="0px"
	 viewBox="0 0 400 400" enable-background="new 0 0 400 400" xml:space="preserve">
<rect fill="#F44336" width="400" height="400"/>
<g>
	<path fill="#FFEBEE" d="M313.7,234.6v-47.3c0-20.3-11.4-36.3-26-36.3H154.4c-13.2,0-23.8,12.8-25.6,30.6c-24.9,5.3-43,29.2-43,57.2
		c0,32,23.8,58.3,53.3,58.3c1.1,0,2.1,0,3.2,0c0,0.4,0.4,0.4,0.4,0.7l0,0c16.7,29.2,46.6,47.3,78.9,47.3c51.2,0,92.4-44.4,92.4-99.2
		C314.4,242.4,314.1,238.5,313.7,234.6z M127.7,237.4c0.4,3.6,0.4,7.5,1.1,11.4c0,3.9,0.7,7.1,1.4,11c0,0.4,0,1.1,0.4,1.8
		c0,0.4,0,0.7,0.4,1.4c-7.8-3.9-15.3-14.2-15.3-23.5s4.3-16.7,11-19.6L127.7,237.4z M94.7,238.9c0-22.8,13.9-42.3,33.4-47.6
		c-0.4,4.6-0.7,11-0.7,19.2c-12.4,2.5-20.6,14.2-20.6,29.2s12.8,30.9,26,33.4c1.4,5.3,2.8,10.7,5,15.3
		C113.9,287.2,94.7,265.5,94.7,238.9z M221.6,336.3c-30.2,0-58.3-17.8-73.2-46.2l-1.4-2.8l0,0c-2.8-5.7-5-12.1-6.4-19.2v-0.4
		c0-0.7-0.4-2.1-0.7-3.9c-0.4-2.1-1.1-5-1.1-5.7v-0.4c-0.7-3.6-1.1-7.5-1.4-11.4l-0.7-7.8c-1.4-21.7-0.4-42,0.4-49.8l0,0v-3.6
		c0.4-14.2,8.2-25.6,17.1-25.6h133.7c9.2,0,17.1,12.4,17.1,27.4v48v0.4c0.4,3.6,0.7,7.1,0.7,10.7
		C305.5,295.8,267.8,336.3,221.6,336.3z"/>
	<path fill="#FFEBEE" d="M170.1,63.6c7.1,2.5,11.7,5.3,13.5,9.2c2.8,5.7,0.4,13.9-2.8,22.4c-4.6,13.9-10.7,30.9,10.7,41.2
		c0.7,0.4,1.4,0.4,1.8,0.4c1.8,0,3.2-1.1,3.9-2.5c1.1-2.1,0-5-2.1-6c-13.5-6.4-11.4-15.3-6-30.2c3.2-10,6.8-20.3,2.1-29.2
		c-3.2-6-9.2-10.7-18.8-13.9c-2.5-0.7-5,0.4-5.7,2.8C166.5,60.4,167.6,62.9,170.1,63.6z"/>
	<path fill="#FFEBEE" d="M199.6,63.6c7.1,2.5,11.7,5.3,13.5,9.2c2.8,5.7,0.4,13.9-2.8,22.4c-4.6,13.9-10.7,30.9,10.7,41.2
		c0.7,0.4,1.1,0.4,1.8,0.4c1.8,0,3.2-1.1,3.9-2.5c1.1-2.1,0-5-2.1-6c-13.5-6.4-11.4-15.3-6-30.2c3.2-10,6.8-20.3,2.1-29.2
		c-3.2-6-9.2-10.7-18.8-13.9c-2.5-0.7-5,0.4-5.7,2.8C196,60.4,197.4,62.9,199.6,63.6z"/>
	<path fill="#FFEBEE" d="M233,63.6c7.1,2.5,11.7,5.3,13.5,9.2c2.8,5.7,0.4,13.9-2.8,22.4c-4.6,13.9-10.7,30.9,10.7,41.2
		c0.7,0.4,1.1,0.4,1.8,0.4c1.8,0,3.2-1.1,3.9-2.5c1.1-2.1,0-5-2.1-6c-13.5-6.4-11.4-15.3-6-30.2c3.2-10,6.8-20.3,2.1-29.2
		c-3.2-6-9.2-10.7-18.8-13.9c-2.5-0.7-5,0.4-5.7,2.8C229.4,60.4,230.9,62.9,233,63.6z"/>
</g>
</svg>
